<?xml version="1.0" encoding="utf-8"?>
<svg xmlns="http://www.w3.org/2000/svg" viewBox="0 0 48 48" width="144" height="144">
  <path d="M24 7C16.51 7 10.330078 12.71 9.5800781 20L9 20C4.04 20 0 24.04 0 29C0 33.96 4.04 38 9 38L19.009766 38L15.800781 35L9 35C5.69 35 3 32.31 3 29C3 25.69 5.69 23 9 23L11 23C11.83 23 12.5 22.33 12.5 21.5C12.5 15.16 17.66 10 24 10C30.34 10 35.5 15.16 35.5 21.5C35.5 22.33 36.17 23 37 23L39 23C42.31 23 45 25.69 45 29C45 32.31 42.31 35 39 35L32.199219 35L28.990234 38L39 38C43.96 38 48 33.96 48 29C48 24.04 43.96 20 39 20L38.419922 20C37.669922 12.71 31.49 7 24 7 z M 23.976562 17.978516 A 1.50015 1.50015 0 0 0 22.5 19.5L22.5 33.046875L17.523438 28.404297 A 1.50015 1.50015 0 0 0 16.431641 27.986328 A 1.50015 1.50015 0 0 0 15.476562 30.595703L22.976562 37.595703 A 1.50015 1.50015 0 0 0 25.023438 37.595703L32.523438 30.595703 A 1.50015 1.50015 0 1 0 30.476562 28.404297L25.5 33.046875L25.5 19.5 A 1.50015 1.50015 0 0 0 23.976562 17.978516 z" fill="#AB4AEB" />
</svg>