<?xml version="1.0" encoding="utf-8"?>
<svg xmlns="http://www.w3.org/2000/svg" viewBox="0 0 48 48" width="144" height="144">
  <path d="M24 0C21.256343 0 19 2.256343 19 5L19 6L12.5 6C10.019 6 8 8.019 8 10.5L8 39.5C8 41.981 10.019 44 12.5 44L24.513672 44C24.181672 43.456 24 42.829641 24 42.181641L24 41L12.5 41C11.673 41 11 40.327 11 39.5L11 10.5C11 9.673 11.673 9 12.5 9L19 9L19 10.5 A 1.50015 1.50015 0 0 0 20.5 12L27.5 12 A 1.50015 1.50015 0 0 0 29 10.5L29 9L35.5 9C36.327 9 37 9.673 37 10.5L37 23.951172L40 25.46875L40 10.5C40 8.019 37.981 6 35.5 6L29 6L29 5C29 2.256343 26.743657 0 24 0 z M 24 3C25.122343 3 26 3.877657 26 5L26 9L22 9L22 5C22 3.877657 22.877657 3 24 3 z M 33.5 24.998047C32.7885 24.998047 32.076234 25.154297 31.427734 25.466797C31.418734 25.471797 31.409391 25.475469 31.400391 25.480469L21.744141 30.369141C21.283141 30.603141 21 31.030188 21 31.492188C21 31.955187 21.283188 32.382234 21.742188 32.615234L31.427734 37.523438C32.072734 37.834437 32.779234 37.990234 33.490234 37.990234C34.210234 37.990234 34.933609 37.830766 35.599609 37.509766L43 33.759766L43 37.490234 A 1.50015 1.50015 0 1 0 46 37.490234L46 32 A 1.50015 1.50015 0 0 0 45.970703 31.685547C45.981981 31.621304 46 31.558295 46 31.492188C46 31.030188 45.716859 30.602187 45.255859 30.367188L35.570312 25.466797C34.921813 25.154297 34.2115 24.998047 33.5 24.998047 z M 26 36.802734L26 42.181641C26 42.559641 26.142437 42.923172 26.398438 43.201172C26.503438 43.315172 29.035 45.990234 33.5 45.990234C37.965 45.990234 40.495562 43.315172 40.601562 43.201172C40.857563 42.923172 41 42.559641 41 42.181641L41 36.802734L36.558594 39.226562C35.586594 39.731563 34.538187 39.990234 33.492188 39.990234C32.458188 39.990234 31.426766 39.738719 30.509766 39.261719L26 36.802734 z" fill="#AB4AEB" />
</svg>