<?xml version="1.0" encoding="utf-8"?>
<svg xmlns="http://www.w3.org/2000/svg" viewBox="0 0 48 48" width="144" height="144">
  <path d="M24 4C12.969824 4 4 12.969824 4 24C4 30.824977 7.4326592 36.851348 12.648438 40.449219 A 1.500417 1.500417 0 1 0 14.351562 37.978516C9.9153408 34.918386 7 29.821023 7 24C7 14.590176 14.590176 7 24 7C33.409824 7 41 14.590176 41 24C41 29.822102 38.084775 34.918307 33.648438 37.978516 A 1.500417 1.500417 0 1 0 35.351562 40.449219C40.567225 36.851428 44 30.825898 44 24C44 12.969824 35.030176 4 24 4 z M 24 11C16.838976 11 11 16.838976 11 24C11 28.440937 13.247037 32.361198 16.652344 34.697266 A 1.50015 1.50015 0 1 0 18.347656 32.224609C15.720963 30.422677 14 27.433063 14 24C14 18.461024 18.461024 14 24 14C29.538976 14 34 18.461024 34 24C34 27.433063 32.279037 30.422677 29.652344 32.224609 A 1.50015 1.50015 0 1 0 31.347656 34.697266C34.752963 32.361198 37 28.440937 37 24C37 16.838976 31.161024 11 24 11 z M 24 18C22.125 18 20.528815 18.757133 19.503906 19.910156C18.478997 21.063179 18 22.541667 18 24C18 25.458333 18.478997 26.936821 19.503906 28.089844C20.229271 28.905879 21.306014 29.40211 22.5 29.693359L22.5 42.5 A 1.50015 1.50015 0 1 0 25.5 42.5L25.5 29.693359C26.693986 29.40211 27.770729 28.905879 28.496094 28.089844C29.521003 26.936821 30 25.458333 30 24C30 22.541667 29.521003 21.063179 28.496094 19.910156C27.471185 18.757133 25.875 18 24 18 z M 24 21C25.124999 21 25.778816 21.367867 26.253906 21.902344C26.728997 22.436821 27 23.208333 27 24C27 24.791667 26.728997 25.563179 26.253906 26.097656C25.795073 26.613844 25.149438 26.958306 24.09375 26.982422 A 1.50015 1.50015 0 0 0 23.90625 26.982422C22.850562 26.958306 22.204927 26.613844 21.746094 26.097656C21.271003 25.563179 21 24.791667 21 24C21 23.208333 21.271003 22.436821 21.746094 21.902344C22.221184 21.367867 22.875001 21 24 21 z" fill="#AB4AEB" />
</svg>